Coordinates
version=1
nRows=5
nColumns=40
inDegrees=yes

Units are S.I. units (second, meters, Newtons, ...)
If the header above contains a line with 'inDegrees', this indicates whether rotational values are in degrees (yes) or radians (no).

endheader
time	pelvis_tilt	pelvis_list	pelvis_rotation	pelvis_tx	pelvis_ty	pelvis_tz	hip_flexion_r	hip_adduction_r	hip_rotation_r	knee_angle_r	knee_angle_r_beta	ankle_angle_r	subtalar_angle_r	mtp_angle_r	hip_flexion_l	hip_adduction_l	hip_rotation_l	knee_angle_l	knee_angle_l_beta	ankle_angle_l	subtalar_angle_l	mtp_angle_l	lumbar_extension	lumbar_bending	lumbar_rotation	arm_flex_r	arm_add_r	arm_rot_r	elbow_flex_r	pro_sup_r	wrist_flex_r	wrist_dev_r	arm_flex_l	arm_add_l	arm_rot_l	elbow_flex_l	pro_sup_l	wrist_flex_l	wrist_dev_l
     11.50000000	     -5.68667679	     -0.80917178	    179.57070221	      0.27871387	      0.70748261	     -0.93727784	     49.73024625	    -40.26910770	     -8.68492465	     71.26828673	      1.24386626	     12.76633315	      0.00000000	      0.00000000	     47.51898162	    -43.57658692	    -11.24092439	     68.78661951	      1.20055299	      6.15035369	      0.00000000	      0.00000000	    -73.16773357	     -0.30732897	      0.34979671	     56.04819960	      0.92087258	      5.72955070	      2.24012653	      6.74067172	      0.00000000	      0.00000000	     60.88919531	     -5.80558328	     72.80219424	      5.29321587	     87.59672398	      0.00000000	      0.00000000
     11.50500000	     -5.69176483	     -0.80714895	    179.56274503	      0.27870866	      0.70744056	     -0.93728734	     49.72988225	    -40.26728088	     -8.69436553	     71.26714792	      1.24384638	     12.78044290	      0.00000000	      0.00000000	     47.51929974	    -43.57499385	    -11.23289677	     68.79953560	      1.20077842	      6.15722165	      0.00000000	      0.00000000	    -73.16518943	     -0.31533832	      0.35456252	     56.04575380	      0.91877192	      5.73191655	      2.24128972	      6.74062812	      0.00000000	      0.00000000	     60.88577180	     -5.80282743	     72.77945215	      5.29370186	     87.59461763	      0.00000000	      0.00000000
     11.51000000	     -5.69527765	     -0.74783752	    179.42176147	      0.27874488	      0.70741356	     -0.93755865	     49.77300930	    -40.02655598	     -8.50612687	     71.25563289	      1.24364540	     12.77599452	      0.00000000	      0.00000000	     47.45576806	    -43.78735833	    -11.38508507	     68.80834995	      1.20093226	      6.17307458	      0.00000000	      0.00000000	    -73.16382722	     -0.42618826	      0.42842148	     56.05250264	      0.93990500	      5.73567719	      2.24113329	      6.74090066	      0.00000000	      0.00000000	     60.88516285	     -5.81429670	     72.76846038	      5.29366820	     87.59264076	      0.00000000	      0.00000000
     11.51500000	     -5.71334122	     -0.82040946	    179.56570711	      0.27867346	      0.70738314	     -0.93737541	     49.72809350	    -40.29550345	     -8.68744915	     71.30586823	      1.24452218	     12.78205023	      0.00000000	      0.00000000	     47.50087122	    -43.56829982	    -11.22488530	     68.80292783	      1.20083763	      6.17180765	      0.00000000	      0.00000000	    -73.16487395	     -0.33205493	      0.33314927	     56.01208070	      0.91822783	      5.72985226	      2.24092155	      6.74014454	      0.00000000	      0.00000000	     60.88365621	     -5.79703300	     72.72853394	      5.28886281	     87.58592449	      0.00000000	      0.00000000
     11.52000000	     -5.71413341	     -0.75863825	    179.41962966	      0.27870982	      0.70735239	     -0.93762425	     49.77541152	    -40.05255075	     -8.49915526	     71.29304762	      1.24429841	     12.77787189	      0.00000000	      0.00000000	     47.43335495	    -43.78509157	    -11.37857844	     68.81637674	      1.20107235	      6.18744064	      0.00000000	      0.00000000	    -73.16461458	     -0.43999398	      0.41335092	     56.02682956	      0.94304094	      5.73464912	      2.24501480	      6.74129630	      0.00000000	      0.00000000	     60.88299677	     -5.81169291	     72.71746471	      5.28793227	     87.58389368	      0.00000000	      0.00000000
